<svg width="62" height="62" viewBox="0 0 62 62" version="1.1" xmlns="http://www.w3.org/2000/svg" xmlns:xlink="http://www.w3.org/1999/xlink">
<title>home</title>
<desc>Created using Figma</desc>
<g id="Canvas" transform="translate(1369 -225)">
<g id="home">
<g id="Group">
<g id="Group">
<g id="Vector">
<use xlink:href="#path0_fill" transform="translate(-1369 225)" fill="#2C006A"/>
</g>
</g>
</g>
</g>
</g>
<defs>
<path id="path0_fill" d="M 61.5732 21.8962L 54.7667 16.9671L 54.7667 3.09975C 54.7667 2.52935 54.3048 2.06642 53.7333 2.06642L 45.4667 2.06642C 44.8952 2.06642 44.4333 2.52935 44.4333 3.09975L 44.4333 9.48475L 31.6066 0.196076C 31.2428 -0.0653586 30.7572 -0.0653586 30.3934 0.196076L 0.426767 21.8962C 0.1581 22.0904 0 22.4015 0 22.7332L 0 60.9667C 0 61.5371 0.4619 62 1.03333 62L 11.3667 62L 16.5333 62L 21.7 62L 25.8333 62L 31 62L 36.1667 62L 40.3 62L 44.4333 62L 48.5667 62L 60.9667 62C 61.5381 62 62 61.5371 62 60.9667L 62 22.7332C 62 22.4015 61.8419 22.0904 61.5732 21.8962ZM 15.5 59.9333L 12.4 59.9333L 12.4 56.8333L 15.5 56.8333L 15.5 59.9333ZM 20.6667 59.9333L 17.5667 59.9333L 17.5667 56.8333L 20.6667 56.8333L 20.6667 59.9333ZM 24.8 59.9333L 22.7333 59.9333L 22.7333 56.8333L 24.8 56.8333L 24.8 59.9333ZM 24.8 51.4228L 23.3719 48.5666L 24.8 48.5666L 24.8 51.4228ZM 24.8 42.3666L 24.8 46.4999L 22.7333 46.4999L 22.7333 40.2999L 20.6667 40.2999L 20.6667 47.5333C 20.6667 47.6934 20.7039 47.8526 20.7752 47.9952L 24.1614 54.7666L 21.7 54.7666L 11.3667 54.7666L 8.90527 54.7666L 12.2915 47.9952C 12.3628 47.8526 12.4 47.6934 12.4 47.5333L 12.4 41.3549L 10.3333 41.3549L 10.3333 46.4999L 8.26667 46.4999L 8.26667 40.2999C 8.26667 38.5908 9.65753 37.1999 11.3667 37.1999L 21.7 37.1999C 23.4091 37.1999 24.8 38.5908 24.8 40.2999L 24.8 42.3666ZM 20.026 28.8113C 20.4259 29.4478 20.6667 30.1939 20.6667 30.9999L 20.6667 35.1332L 12.4 35.1332L 12.4 32.0032C 15.9702 31.8028 18.8129 30.569 20.026 28.8113ZM 12.5622 29.9159C 13.0427 28.1644 14.631 26.8665 16.5333 26.8665C 17.2391 26.8665 17.8942 27.0608 18.476 27.3739C 17.9397 28.5374 15.6385 29.6741 12.5622 29.9159ZM 35.1333 36.1666L 35.1333 47.5333L 35.1333 52.7L 35.1333 59.9333L 32.0333 59.9333L 32.0333 46.4999L 29.9667 46.4999L 29.9667 59.9333L 26.8667 59.9333L 26.8667 47.5333L 26.8667 42.3666L 26.8667 40.2999C 26.8667 37.8581 25.1586 35.8173 22.878 35.281C 23.2614 34.0048 24.4332 33.0665 25.8333 33.0665L 36.1667 33.0665C 37.8758 33.0665 39.2667 34.4574 39.2667 36.1666L 39.2667 42.471C 38.4989 42.628 37.8035 42.969 37.2 43.4258L 37.2 36.1666L 35.1333 36.1666ZM 26.8667 26.8665C 26.8667 24.587 28.7205 22.7332 31 22.7332C 33.2795 22.7332 35.1333 24.587 35.1333 26.8665C 35.1333 29.1461 33.2795 30.9999 31 30.9999C 28.7205 30.9999 26.8667 29.1461 26.8667 26.8665ZM 39.2667 59.9333L 37.2 59.9333L 37.2 53.7333L 39.2667 53.7333L 39.2667 59.9333ZM 47.5333 47.5333L 47.5333 59.9333L 45.4667 59.9333L 45.4667 53.7333L 43.4 53.7333L 43.4 59.9333L 41.3333 59.9333L 41.3333 47.5333L 39.2667 47.5333L 39.2667 51.6666L 37.2 51.6666L 37.2 47.5333C 37.2 45.8241 38.5909 44.4333 40.3 44.4333L 48.5667 44.4333C 50.2758 44.4333 51.6667 45.8241 51.6667 47.5333L 51.6667 51.6666L 49.6 51.6666L 49.6 47.5333L 47.5333 47.5333ZM 41.3333 39.2666C 41.3333 37.5574 42.7242 36.1666 44.4333 36.1666C 46.1425 36.1666 47.5333 37.5574 47.5333 39.2666C 47.5333 40.9757 46.1425 42.3666 44.4333 42.3666C 42.7242 42.3666 41.3333 40.9757 41.3333 39.2666ZM 59.9333 59.9333L 49.6 59.9333L 49.6 53.7333L 52.7 53.7333C 53.2714 53.7333 53.7333 53.2704 53.7333 52.7L 53.7333 47.5333C 53.7333 44.6844 51.4156 42.3666 48.5667 42.3666L 48.5398 42.3666C 49.196 41.5006 49.6 40.4342 49.6 39.2666C 49.6 36.4177 47.2822 34.0999 44.4333 34.0999C 43.2223 34.0999 42.1218 34.536 41.2393 35.2376C 40.7991 32.832 38.6973 30.9999 36.1667 30.9999L 35.6087 30.9999C 36.5945 29.9014 37.2 28.4558 37.2 26.8665C 37.2 23.4472 34.4193 20.6665 31 20.6665C 27.5807 20.6665 24.8 23.4472 24.8 26.8665C 24.8 28.4558 25.4055 29.9014 26.3913 30.9999L 25.8333 30.9999C 24.6657 30.9999 23.5993 31.4039 22.7333 32.0601L 22.7333 30.9999C 22.7333 27.5806 19.9526 24.7998 16.5333 24.7998C 13.114 24.7998 10.3333 27.5806 10.3333 30.9999L 10.3333 35.2376C 7.97837 35.7181 6.2 37.8054 6.2 40.2999L 6.2 47.5333C 6.2 48.1037 6.6619 48.5666 7.23333 48.5666L 9.69473 48.5666L 6.3085 55.3381C 6.14833 55.6584 6.16487 56.0387 6.35397 56.3435C 6.54307 56.6473 6.87477 56.8333 7.23333 56.8333L 10.3333 56.8333L 10.3333 59.9333L 2.06667 59.9333L 2.06667 23.2612L 31 2.30925L 44.8601 12.3461C 45.1742 12.5734 45.5907 12.6054 45.9368 12.4298C 46.282 12.252 46.5 11.8976 46.5 11.5091L 46.5 4.13309L 52.7 4.13309L 52.7 17.4952C 52.7 17.8269 52.8581 18.1379 53.1268 18.3322L 59.9333 23.2612L 59.9333 59.9333Z"/>
</defs>
</svg>
