<svg width="61" height="61" viewBox="0 0 61 61" version="1.1" xmlns="http://www.w3.org/2000/svg" xmlns:xlink="http://www.w3.org/1999/xlink">
<title>Group 2</title>
<desc>Created using Figma</desc>
<g id="Canvas" transform="translate(1369 -84)">
<g id="Group 2">
<g id="Subtract">
<use xlink:href="#path0_fill" transform="translate(-1360.53 114.381)" fill="#2C006A"/>
</g>
<g id="Subtract">
<use xlink:href="#path1_fill" transform="translate(-1369 84)" fill="#2C006A"/>
</g>
</g>
</g>
<defs>
<path id="path0_fill" fill-rule="evenodd" d="M 27.2514 27.8815L 41.5225 27.8815L 41.5225 1.10193C 41.5225 0.421013 41.9893 0 42.5093 0C 42.9457 0 43.4311 0.400963 43.4311 1.10204L 43.4311 28.9835C 43.4311 29.5939 42.9616 30.0192 42.5093 30.0192L 26.329 30.0192C 25.7927 30.0192 25.342 29.574 25.342 28.9835L 25.342 17.5749L 18.089 17.5749L 18.089 28.9835C 18.089 29.5939 17.6194 30.0192 17.1672 30.0192L 0.921753 30.0192C 0.469604 30.0192 0 29.5939 0 28.9835L 0 1.96449C 0 1.35406 0.469543 0.928825 0.921753 0.928825C 1.45844 0.928825 1.90863 1.3737 1.90863 1.96449L 1.90863 27.8815L 16.1478 27.8815L 16.1478 16.473C 16.1478 15.89 16.6302 15.4078 17.1672 15.4078L 26.329 15.4078C 26.7643 15.4078 27.2514 15.8511 27.2514 16.473L 27.2514 27.8815Z"/>
<path id="path1_fill" fill-rule="evenodd" d="M 30.2185 0C 29.9934 0 29.7703 0.0897617 29.5329 0.339292L 29.5316 0.340636L 0.325577 31.4044C -0.121566 31.8796 -0.0815884 32.5558 0.28389 32.8912L 0.326432 32.9303L 0.362931 32.975C 0.656998 33.3355 1.204 33.3844 1.62978 32.932L 30.2219 2.59334L 58.7428 33.2129L 58.7439 33.214C 58.8577 33.3346 59.0551 33.4474 59.4269 33.4474C 59.7382 33.4623 59.8965 33.3985 60.1287 33.1936C 60.4833 32.7915 60.5039 32.0347 60.1088 31.6082L 60.1079 31.6071L 45.7935 16.3173L 45.7935 5.73182C 45.7935 5.07954 45.3147 4.63722 44.7741 4.63722C 44.3349 4.63722 43.8518 5.04043 43.8518 5.73182L 43.8518 14.2616L 30.8345 0.334528C 30.5922 0.0739803 30.3691 0 30.2185 0Z"/>
</defs>
</svg>
