<?xml version="1.0" encoding="utf-8"?>
<!-- Generator: Adobe Illustrator 17.0.0, SVG Export Plug-In . SVG Version: 6.00 Build 0)  -->
<!DOCTYPE svg PUBLIC "-//W3C//DTD SVG 1.1//EN" "http://www.w3.org/Graphics/SVG/1.1/DTD/svg11.dtd">
<svg version="1.1" id="Layer_1" xmlns="http://www.w3.org/2000/svg" xmlns:xlink="http://www.w3.org/1999/xlink" x="0px" y="0px"
	 width="109.519px" height="117.729px" viewBox="0 0 109.519 117.729" enable-background="new 0 0 109.519 117.729"
	 xml:space="preserve">
<g>
	<g>
		<g>
			<g>
				<path fill="#0BBFD2" d="M58.755,91.906h-3.923c-0.829,0-1.5-0.671-1.5-1.5s0.671-1.5,1.5-1.5h3.923c0.829,0,1.5,0.671,1.5,1.5
					S59.583,91.906,58.755,91.906z"/>
			</g>
			<g>
				<path fill="#FFFFFF" d="M58.755,43.007h-3.923c-0.829,0-1.5-0.671-1.5-1.5s0.671-1.5,1.5-1.5h3.923c0.829,0,1.5,0.671,1.5,1.5
					S59.583,43.007,58.755,43.007z"/>
			</g>
			<g>
				<path fill="#FFFFFF" d="M78.421,84.535H32.452c-0.829,0-1.5-0.671-1.5-1.5s0.671-1.5,1.5-1.5h45.968c0.829,0,1.5,0.671,1.5,1.5
					S79.249,84.535,78.421,84.535z"/>
			</g>
			<g>
				<path fill="#FFFFFF" d="M77.856,98.177H34.452c-1.93,0-3.5-1.57-3.5-3.5V36.149c0-1.93,1.57-3.5,3.5-3.5h43.404
					c1.93,0,3.5,1.57,3.5,3.5v58.528C81.356,96.606,79.786,98.177,77.856,98.177z M34.452,35.649c-0.271,0-0.5,0.229-0.5,0.5v58.528
					c0,0.271,0.229,0.5,0.5,0.5h43.404c0.271,0,0.5-0.229,0.5-0.5V36.149c0-0.271-0.229-0.5-0.5-0.5H34.452z"/>
			</g>
		</g>
	</g>
	<g>
		<path fill="#0BBFD2" d="M71.697,117.729c-27.117,0-59.664-11.484-69.651-24.577c-5.818-7.626,1.788-29.872,10.069-46.605
			C22.742,25.075,40.514,0,55.629,0c24.175,0,53.891,50.862,53.891,92.242C109.519,108.439,95.734,117.729,71.697,117.729z
			 M55.629,3C42.77,3,25.859,25.54,14.804,47.877C4.881,67.928,0.519,86.204,4.431,91.333c9.341,12.245,41.402,23.396,67.266,23.396
			c13.005,0,34.822-2.921,34.822-22.486C106.519,53.042,77.983,3,55.629,3z"/>
	</g>
</g>
</svg>
