<svg width="56" height="56" viewBox="0 0 56 56" version="1.1" xmlns="http://www.w3.org/2000/svg" xmlns:xlink="http://www.w3.org/1999/xlink">
<title>light-bulb</title>
<desc>Created using Figma</desc>
<g id="Canvas" transform="translate(1368 32)">
<g id="light-bulb">
<g id="Group">
<g id="Group">
<g id="Group">
<g id="Vector">
<use xlink:href="#path0_fill" transform="translate(-1351.2 -18.9334)" fill="#2C006A"/>
</g>
<g id="Vector">
<use xlink:href="#path1_fill" transform="translate(-1361.67 -31.6625)" fill="#2C006A"/>
</g>
<g id="Vector">
<use xlink:href="#path2_fill" transform="translate(-1366.37 -23.5217)" fill="#2C006A"/>
</g>
<g id="Vector">
<use xlink:href="#path3_fill" transform="translate(-1323.77 -31.6644)" fill="#2C006A"/>
</g>
<g id="Vector">
<use xlink:href="#path4_fill" transform="translate(-1368 -14.2648)" fill="#2C006A"/>
</g>
<g id="Vector">
<use xlink:href="#path5_fill" transform="translate(-1319.88 -23.5244)" fill="#2C006A"/>
</g>
<g id="Vector">
<use xlink:href="#path6_fill" transform="translate(-1358.67 -32)" fill="#2C006A"/>
</g>
<g id="Vector">
<use xlink:href="#path7_fill" transform="translate(-1318.53 -14.2667)" fill="#2C006A"/>
</g>
</g>
</g>
</g>
</g>
</g>
<defs>
<path id="path0_fill" d="M 14.0001 23.3334C 14.5163 23.3334 14.9334 22.9153 14.9334 22.4001L 14.9334 9.33341L 17.7334 9.33341C 20.3066 9.33341 22.4001 7.23997 22.4001 4.6667C 22.4001 2.09355 20.3067 3.7384e-07 17.7334 3.7384e-07C 15.1603 3.7384e-07 13.0667 2.09344 13.0667 4.6667L 13.0667 7.4667L 9.33341 7.4667L 9.33341 4.6667C 9.33341 2.09355 7.23997 3.7384e-07 4.6667 3.7384e-07C 2.09355 3.7384e-07 -1.06812e-07 2.09344 -1.06812e-07 4.6667C -1.06812e-07 7.23986 2.09344 9.33341 4.6667 9.33341L 7.4667 9.33341L 7.4667 22.4001C 7.4667 22.9153 7.88484 23.3334 8.4 23.3334C 8.91516 23.3334 9.3333 22.9153 9.3333 22.4001L 9.3333 9.33341L 13.0666 9.33341L 13.0666 22.4001C 13.0668 22.9153 13.484 23.3334 14.0001 23.3334ZM 14.9334 4.6667C 14.9334 3.12298 16.1897 1.8667 17.7334 1.8667C 19.2771 1.8667 20.5334 3.12298 20.5334 4.6667C 20.5334 6.21042 19.2771 7.4667 17.7334 7.4667L 14.9334 7.4667L 14.9334 4.6667ZM 7.46681 7.4667L 4.66681 7.4667C 3.12309 7.4667 1.86681 6.21042 1.86681 4.6667C 1.86681 3.12298 3.12309 1.8667 4.66681 1.8667C 6.21053 1.8667 7.46681 3.12298 7.46681 4.6667L 7.46681 7.4667Z"/>
<path id="path1_fill" d="M 0.333262 1.64761L 3.90611 4.64646C 4.08154 4.79389 4.29439 4.86488 4.50625 4.86488C 4.77225 4.86488 5.03726 4.75189 5.22112 4.53172C 5.55242 4.13688 5.50112 3.548 5.10628 3.21671L 1.53354 0.217754C 1.1387 -0.112668 0.5507 -0.0612619 0.218528 0.332598C -0.112878 0.728316 -0.0615814 1.31632 0.333262 1.64761Z"/>
<path id="path2_fill" d="M 5.63659 1.65118L 1.25273 0.0561633C 0.768304 -0.119274 0.23357 0.129883 0.0561634 0.614304C -0.119274 1.09873 0.129882 1.63444 0.614304 1.81087L 4.99816 3.40588C 5.1036 3.44416 5.21101 3.46287 5.31732 3.46287C 5.69816 3.46287 6.05648 3.22673 6.19462 2.84785C 6.37115 2.36332 6.12101 1.8276 5.63659 1.65118Z"/>
<path id="path3_fill" d="M 0.934298 4.86681C 1.14517 4.86681 1.35802 4.79495 1.53258 4.64839L 5.10728 1.64769C 5.50212 1.31639 5.5543 0.728391 5.22212 0.332672C 4.89356 -0.0603124 4.30469 -0.113469 3.90798 0.217828L 0.33328 3.21853C -0.0615641 3.54983 -0.11286 4.13783 0.218437 4.53355C 0.402297 4.75295 0.667314 4.86681 0.934298 4.86681Z"/>
<path id="path4_fill" d="M 5.59814 -6.67572e-07L 0.933297 -6.67572e-07C 0.418141 -6.67572e-07 0 0.418141 0 0.933297C 0 1.44845 0.418141 1.86659 0.933297 1.86659L 5.59814 1.86659C 6.1133 1.86659 6.53144 1.44845 6.53144 0.933297C 6.53144 0.418141 6.1133 -6.67572e-07 5.59814 -6.67572e-07Z"/>
<path id="path5_fill" d="M 6.19522 0.614117C 6.01978 0.130679 5.48307 -0.120446 4.99964 0.0569601L 0.614794 1.65296C 0.129497 1.82938 -0.119768 2.3651 0.0566537 2.84952C 0.194794 3.22851 0.552231 3.46366 0.93395 3.46366C 1.03939 3.46366 1.14767 3.44594 1.25223 3.40668L 5.63795 1.81068C 6.12237 1.63426 6.37251 1.09854 6.19522 0.614117Z"/>
<path id="path6_fill" d="M 18.6667 0C 8.37386 0 2.00272e-08 8.37386 2.00272e-08 18.6667C 2.00272e-08 26.544 3.0893 32.4203 9.72442 37.1597C 9.75614 37.1821 9.80284 37.2101 9.83741 37.2287C 9.88597 37.2549 10.8903 37.8158 11.1423 39.3894C 10.0885 39.7917 9.33341 40.8063 9.33341 42C 9.33341 42.7168 9.60411 43.3711 10.0483 43.8667C 9.604 44.3623 9.33341 45.0166 9.33341 45.7334C 9.33341 46.4502 9.60411 47.1044 10.0483 47.6001C 9.604 48.0957 9.33341 48.75 9.33341 49.4668C 9.33341 51.0105 10.5897 52.2668 12.1334 52.2668C 12.6486 52.2668 13.0667 51.8487 13.0667 51.3335C 13.0667 50.8184 12.6486 50.4002 12.1334 50.4002C 11.6191 50.4002 11.2001 49.9812 11.2001 49.4669C 11.2001 48.9526 11.6191 48.5336 12.1334 48.5336L 21.4667 48.5336C 21.9828 48.5336 22.4 48.1155 22.4 47.6003C 22.4 47.0852 21.9828 46.667 21.4667 46.667L 12.1334 46.667C 11.6191 46.667 11.2001 46.248 11.2001 45.7337C 11.2001 45.2195 11.6191 44.8004 12.1334 44.8004L 21.4667 44.8004C 21.9828 44.8004 22.4 44.3823 22.4 43.8671C 22.4 43.352 21.9828 42.9338 21.4667 42.9338L 12.1334 42.9338C 11.6191 42.9338 11.2001 42.5148 11.2001 42.0005C 11.2001 41.4863 11.6191 41.0672 12.1334 41.0672L 21.4667 41.0672C 21.9828 41.0672 22.4 40.6491 22.4 40.134C 22.4 39.6188 21.9828 39.2007 21.4667 39.2007L 13.0033 39.2007C 12.6728 36.8505 11.1497 35.8322 10.768 35.612C 4.61169 31.2001 1.86681 25.9725 1.86681 18.6672C 1.86681 9.40395 9.40352 1.86725 18.6668 1.86725C 27.9301 1.86725 35.4668 9.40395 35.4668 18.6672C 35.4668 25.9724 32.7218 31.2001 26.5657 35.612C 26.1364 35.8592 24.2668 37.1147 24.2668 40.134C 24.2668 40.6491 24.684 41.0672 25.2001 41.0672C 25.7153 41.0672 26.1334 41.4863 26.1334 42.0005C 26.1334 42.5148 25.7153 42.9338 25.2001 42.9338C 24.684 42.9338 24.2668 43.352 24.2668 43.8671C 24.2668 44.3823 24.684 44.8004 25.2001 44.8004C 25.7153 44.8004 26.1334 45.2195 26.1334 45.7337C 26.1334 46.248 25.7153 46.667 25.2001 46.667C 24.684 46.667 24.2668 47.0852 24.2668 47.6003C 24.2668 48.1155 24.684 48.5336 25.2001 48.5336C 25.7153 48.5336 26.1334 48.9526 26.1334 49.4669C 26.1334 49.9989 25.7321 50.4002 25.2001 50.4002L 15.8667 50.4002C 15.3515 50.4002 14.9334 50.8184 14.9334 51.3335L 14.9334 53.2C 14.9334 54.7437 16.1897 56 17.7334 56L 19.6001 56C 21.1438 56 22.4001 54.7437 22.4001 53.2L 22.4001 52.2667L 25.2001 52.2667C 26.771 52.2667 28.0001 51.0366 28.0001 49.4667C 28.0001 48.7499 27.7294 48.0957 27.2851 47.6C 27.7294 47.1044 28.0001 46.4501 28.0001 45.7333C 28.0001 45.0165 27.7294 44.3623 27.2851 43.8666C 27.7294 43.371 28.0001 42.7167 28.0001 41.9999C 28.0001 40.8062 27.245 39.7916 26.1904 39.3893C 26.4424 37.8158 27.4457 37.2558 27.484 37.2343C 27.5278 37.2129 27.5698 37.1876 27.609 37.1596C 34.2431 32.4202 37.3334 26.5439 37.3334 18.6666C 37.3334 8.37386 28.9595 0 18.6667 0ZM 20.5334 53.2C 20.5334 53.7143 20.1153 54.1333 19.6001 54.1333L 17.7334 54.1333C 17.2191 54.1333 16.8001 53.7143 16.8001 53.2L 16.8001 52.2667L 20.5334 52.2667L 20.5334 53.2Z"/>
<path id="path7_fill" d="M 5.6 -4.80652e-07L 0.933295 -4.80652e-07C 0.417155 -4.80652e-07 -1.8692e-07 0.418141 -1.8692e-07 0.933297C -1.8692e-07 1.44845 0.417155 1.86659 0.933295 1.86659L 5.6 1.86659C 6.11614 1.86659 6.5333 1.44845 6.5333 0.933297C 6.5333 0.418141 6.11614 -4.80652e-07 5.6 -4.80652e-07Z"/>
</defs>
</svg>
