<svg width="110" height="118" viewBox="0 0 110 118" version="1.1" xmlns="http://www.w3.org/2000/svg" xmlns:xlink="http://www.w3.org/1999/xlink">
<title>Logo</title>
<desc>Created using Figma</desc>
<g id="Canvas" transform="translate(1847 46)">
<g id="Logo">
<g id="ic-02">
<g id="Group">
<g id="Group">
<g id="Vector">
<use xlink:href="#path0_fill" transform="translate(-1847 -46)" fill="#F2F2F2"/>
</g>
</g>
</g>
</g>
<g id="&#195;&#173;cone">
<g id="Group">
<g id="Group">
<g id="Vector">
<use xlink:href="#path1_fill" transform="translate(-1787.3 6.6)" fill="#F2F2F2"/>
</g>
</g>
</g>
<g id="Group">
<g id="Group">
<g id="Vector">
<use xlink:href="#path2_fill" transform="translate(-1817 -6)" fill="#F2F2F2"/>
</g>
</g>
</g>
<g id="Group">
<g id="Group">
<g id="Vector">
<use xlink:href="#path3_fill" transform="translate(-1774.7 5.9637)" fill="#F2F2F2"/>
</g>
</g>
</g>
<g id="Group">
<g id="Group">
<g id="Vector">
<use xlink:href="#path4_fill" transform="translate(-1805.84 7.5)" fill="#F2F2F2"/>
</g>
</g>
</g>
<g id="Group">
<g id="Group">
<g id="Vector">
<use xlink:href="#path5_fill" transform="translate(-1808.54 3.9)" fill="#F2F2F2"/>
</g>
</g>
</g>
<g id="Group">
<g id="Group">
<g id="Vector">
<use xlink:href="#path6_fill" transform="translate(-1803.5 11.1)" fill="#F2F2F2"/>
</g>
</g>
</g>
</g>
</g>
</g>
<defs>
<path id="path0_fill" d="M 71.6974 117.729C 44.5804 117.729 12.0334 106.245 2.04639 93.152C -3.77161 85.526 3.83439 63.28 12.1154 46.547C 22.7424 25.075 40.5144 0 55.6294 0C 79.8044 0 109.52 50.862 109.52 92.242C 109.519 108.439 95.7344 117.729 71.6974 117.729ZM 55.6294 3C 42.7704 3 25.8594 25.54 14.8044 47.877C 4.88139 67.928 0.519394 86.204 4.43139 91.333C 13.7724 103.578 45.8334 114.729 71.6974 114.729C 84.7024 114.729 106.519 111.808 106.519 92.243C 106.519 53.042 77.9834 3 55.6294 3Z"/>
<path id="path1_fill" d="M 1.85669 2.3841C 1.98539 2.0439 2.31479 1.8 2.69999 1.8C 3.19589 1.8 3.59999 2.2041 3.59999 2.7L 5.39998 2.7C 5.39998 1.2114 4.18858 -6.17981e-08 2.69999 -6.17981e-08C 1.21139 -6.17981e-08 0 1.2114 0 2.7C 0 2.9385 0.094499 3.168 0.263698 3.3363L 3.54329 6.6159C 3.41459 6.9561 3.08519 7.2 2.69999 7.2C 2.20409 7.2 1.79999 6.7959 1.79999 6.3L 0 6.3C 0 7.7886 1.21139 9 2.69999 9C 4.18858 9 5.39998 7.7886 5.39998 6.3C 5.39998 6.0615 5.30548 5.832 5.13628 5.6637L 1.85669 2.3841Z"/>
<path id="path2_fill" d="M 32.3999 9C 31.4522 9 30.5459 9.1719 29.6999 9.4725L 29.6999 4.5C 29.6999 2.0187 27.6812 5.34293e-12 25.1999 5.34293e-12L 4.49998 5.34293e-12C 2.01869 5.34293e-12 0 2.0187 0 4.5L 0 42.3C 0 44.7813 2.01869 46.8 4.49998 46.8L 10.8 46.8C 10.8 47.0385 10.8945 47.268 11.0637 47.4363L 14.3999 50.7726L 14.3999 54L 16.1999 54L 16.1999 50.4C 16.1999 50.1615 16.1054 49.932 15.9362 49.7637L 12.5999 46.4274L 12.5999 42.4458L 13.454 39.8844C 13.4846 39.7926 13.4999 39.6963 13.4999 39.6L 13.4999 27C 13.4999 26.5041 13.904 26.1 14.3999 26.1C 14.8958 26.1 15.2999 26.5041 15.2999 27L 15.2999 35.1L 15.2999 39.6L 15.2999 40.5L 17.0999 40.5L 17.0999 39.6L 17.0999 35.1C 17.0999 34.6041 17.504 34.2 17.9999 34.2C 18.4958 34.2 18.8999 34.6041 18.8999 35.1L 18.8999 37.8L 18.8999 40.5L 20.6999 40.5L 20.6999 37.8L 20.6999 35.1C 20.6999 34.6041 21.104 34.2 21.5999 34.2C 22.0958 34.2 22.4999 34.6041 22.4999 35.1L 22.4999 36L 22.4999 39.6L 22.4999 40.5L 24.2999 40.5L 24.2999 39.6L 24.2999 36C 24.2999 35.5041 24.704 35.1 25.1999 35.1C 25.6958 35.1 26.0999 35.5041 26.0999 36L 26.0999 37.8L 26.0999 40.5L 27.8999 40.5L 27.8999 37.8C 27.8999 37.3041 28.304 36.9 28.7999 36.9C 29.2958 36.9 29.6999 37.3041 29.6999 37.8L 29.6999 43.0542L 27.0458 51.0156C 27.0152 51.1074 26.9999 51.2037 26.9999 51.3L 26.9999 54L 28.7999 54L 28.7999 51.4458L 31.454 43.4844C 31.4846 43.3926 31.4999 43.2963 31.4999 43.2L 31.4999 37.8C 31.4999 36.6282 30.7448 35.6382 29.6999 35.2656L 29.6999 24.7275C 30.5459 25.0281 31.4522 25.2 32.3999 25.2C 36.8656 25.2 40.4998 21.5658 40.4998 17.1C 40.4998 12.6342 36.8656 9 32.3999 9ZM 1.79999 4.5C 1.79999 3.0114 3.01139 1.8 4.49998 1.8L 25.1999 1.8C 26.6885 1.8 27.8999 3.0114 27.8999 4.5L 27.8999 5.4L 1.79999 5.4L 1.79999 4.5ZM 10.8459 42.0156C 10.8153 42.1074 10.8 42.2037 10.8 42.3L 10.8 45L 4.49998 45C 3.01139 45 1.79999 43.7886 1.79999 42.3L 1.79999 39.6L 11.6514 39.6L 10.8459 42.0156ZM 14.3999 24.3C 12.9113 24.3 11.7 25.5114 11.7 27L 11.7 27.9L 9.89996 27.9C 9.40406 27.9 8.99996 27.4959 8.99996 27L 8.99996 23.4C 8.99996 22.9041 9.40406 22.5 9.89996 22.5L 18.8999 22.5C 19.3958 22.5 19.7999 22.9041 19.7999 23.4L 19.7999 27C 19.7999 27.4959 19.3958 27.9 18.8999 27.9L 17.0999 27.9L 17.0999 27C 17.0999 25.5114 15.8885 24.3 14.3999 24.3ZM 27.8999 35.2539C 27.8693 35.2647 27.8423 35.2809 27.8126 35.2926C 27.8072 35.2944 27.8009 35.2953 27.7955 35.298C 27.485 34.1505 26.4446 33.3 25.1999 33.3C 24.7166 33.3 24.2693 33.4377 23.876 33.6609C 23.3972 32.9058 22.5584 32.4 21.5999 32.4C 20.906 32.4 20.2787 32.6709 19.7999 33.102C 19.3211 32.67 18.6938 32.4 17.9999 32.4C 17.6831 32.4 17.3825 32.4648 17.0999 32.5656L 17.0999 29.7L 18.8999 29.7C 20.3885 29.7 21.5999 28.4886 21.5999 27L 21.5999 23.4C 21.5999 21.9114 20.3885 20.7 18.8999 20.7L 9.89996 20.7C 8.41136 20.7 7.19997 21.9114 7.19997 23.4L 7.19997 27C 7.19997 28.4886 8.41136 29.7 9.89996 29.7L 11.7 29.7L 11.7 37.8L 1.79999 37.8L 1.79999 7.2L 27.8999 7.2L 27.8999 10.3698C 27.6326 10.5489 27.3797 10.7469 27.1358 10.9566C 27.1025 10.9854 27.0719 11.0151 27.0395 11.0448C 26.8361 11.2257 26.6417 11.4156 26.4572 11.6154C 26.4203 11.6559 26.3834 11.6955 26.3465 11.7369C 26.1503 11.9583 25.9649 12.1887 25.793 12.4308C 25.7876 12.4389 25.7813 12.4461 25.775 12.4542C 25.4069 12.9771 25.1018 13.5441 24.8651 14.1471C 24.8516 14.1804 24.8408 14.2146 24.8282 14.2479C 24.7328 14.4999 24.6509 14.7564 24.5807 15.0192C 24.5636 15.084 24.5465 15.1488 24.5303 15.2145C 24.4727 15.453 24.4277 15.6951 24.3926 15.9417C 24.3818 16.0155 24.3674 16.0875 24.3593 16.1613C 24.3233 16.47 24.2999 16.7823 24.2999 17.1C 24.2999 17.4177 24.3233 17.73 24.3593 18.0387C 24.3683 18.1125 24.3818 18.1845 24.3926 18.2583C 24.4277 18.504 24.4736 18.747 24.5303 18.9855C 24.5465 19.0512 24.5627 19.1151 24.5807 19.1808C 24.6509 19.4436 24.7328 19.701 24.8282 19.9521C 24.8408 19.9854 24.8525 20.0196 24.8651 20.0529C 25.1027 20.6559 25.4078 21.2229 25.775 21.7458C 25.7804 21.7539 25.7867 21.7611 25.793 21.7692C 25.9649 22.0113 26.1503 22.2417 26.3465 22.4631C 26.3825 22.5045 26.4194 22.5441 26.4572 22.5846C 26.6417 22.7844 26.8352 22.9752 27.0395 23.1552C 27.0719 23.184 27.1034 23.2146 27.1358 23.2434C 27.3797 23.4522 27.6326 23.6502 27.8999 23.8302L 27.8999 35.2539ZM 32.3999 23.4C 31.2416 23.4 30.1589 23.0805 29.2247 22.5324C 29.0042 22.4037 28.7945 22.2615 28.5938 22.1085C 28.5749 22.0941 28.5551 22.0806 28.5371 22.0662C 28.1141 21.7359 27.737 21.3561 27.4148 20.9376C 27.404 20.9232 27.3941 20.9097 27.3833 20.8953C 27.2258 20.6874 27.08 20.4705 26.9495 20.2455C 26.9486 20.2437 26.9468 20.2419 26.9459 20.2401C 26.6822 19.7838 26.4788 19.2942 26.3357 18.7848C 26.3249 18.7443 26.315 18.7038 26.3042 18.6633C 26.2511 18.459 26.2106 18.2502 26.1782 18.0405C 26.1692 17.9829 26.1584 17.9253 26.1521 17.8677C 26.1197 17.6139 26.0999 17.3583 26.0999 17.1C 26.0999 16.8417 26.1197 16.5861 26.1512 16.3332C 26.1584 16.2747 26.1692 16.218 26.1773 16.1604C 26.2097 15.9498 26.2502 15.7419 26.3033 15.5376C 26.3141 15.4971 26.3231 15.4566 26.3348 15.4161C 26.4779 14.9067 26.6813 14.4171 26.945 13.9608C 26.9459 13.959 26.9477 13.9572 26.9486 13.9554C 27.0791 13.7304 27.2249 13.5135 27.3824 13.3056C 27.3932 13.2912 27.4031 13.2777 27.4139 13.2633C 27.737 12.8439 28.1132 12.4641 28.5362 12.1347C 28.5551 12.1203 28.574 12.1068 28.5929 12.0924C 28.7936 11.9394 29.0033 11.7981 29.2238 11.6685C 30.1589 11.1195 31.2416 10.8 32.3999 10.8C 35.8738 10.8 38.6998 13.626 38.6998 17.1C 38.6998 20.574 35.8738 23.4 32.3999 23.4Z"/>
<path id="path3_fill" d="M 11.4363 3.6L 7.83627 1.37329e-07L 6.56367 1.2726L 8.62736 3.3363L 0 3.3363L 0 5.1363L 8.62736 5.1363L 6.56367 7.2L 7.83627 8.4726L 11.4363 4.8726C 11.7882 4.5207 11.7882 3.9519 11.4363 3.6Z"/>
<path id="path4_fill" d="M 3.23999 -6.17981e-08C 1.67399 -6.17981e-08 0.538197 0.6768 -3.43321e-07 1.08L 1.08 2.52C 1.43819 2.2518 2.19599 1.8 3.23999 1.8C 3.68818 1.8 4.56478 1.8936 5.39998 2.52L 6.47997 1.08C 5.22718 0.1404 3.91228 -6.17981e-08 3.23999 -6.17981e-08Z"/>
<path id="path5_fill" d="M 5.93998 -6.17981e-08C 3.06809 -6.17981e-08 0.985496 1.2402 -3.43321e-07 1.98L 1.08 3.42C 1.88639 2.8152 3.59009 1.8 5.93998 1.8C 6.94797 1.8 8.92076 2.0106 10.8 3.42L 11.88 1.9791C 9.58226 0.2574 7.17207 -6.17981e-08 5.93998 -6.17981e-08Z"/>
<path id="path6_fill" d="M 1.79999 0L 0 0L 0 1.8L 1.79999 1.8L 1.79999 0Z"/>
</defs>
</svg>
