<svg width="110" height="118" viewBox="0 0 110 118" version="1.1" xmlns="http://www.w3.org/2000/svg" xmlns:xlink="http://www.w3.org/1999/xlink">
<title>ic-02</title>
<desc>Created using Figma</desc>
<g id="Canvas" transform="translate(1847 46)">
<rect x="-1847" y="-46" width="110" height="118" fill="#E5E5E5"/>
<g id="Login">
<g id="light theme">
<g id="screen">
<mask id="mask0_outline" mask-type="alpha">
<g id="screen bg">
<use xlink:href="#path0_fill" transform="translate(-1970 -119)" fill="#FFFFFF"/>
</g>
</mask>
<g id="screen bg" mask="url(#mask0_outline)">
<use xlink:href="#path0_fill" transform="translate(-1970 -119)" fill="#2C006A"/>
</g>
</g>
</g>
<g id="Logo">
<g id="ic-02">
<g id="Group">
<g id="Group">
<g id="Vector">
<use xlink:href="#path1_fill" transform="translate(-1847 -46)" fill="#0BC0D3"/>
</g>
</g>
</g>
<g id="D">
<g id="Group 2">
<g id="Rectangle">
<use xlink:href="#path2_fill" transform="translate(-1799 -23)" fill="#FFFFFF"/>
</g>
<g id="Rectangle">
<use xlink:href="#path2_fill" transform="translate(-1790.33 -23)" fill="#FFFFFF"/>
</g>
<g id="Rectangle">
<use xlink:href="#path2_fill" transform="translate(-1799 43.5)" fill="#FFFFFF"/>
</g>
<g id="Rectangle">
<use xlink:href="#path2_fill" transform="translate(-1790.33 43.5)" fill="#FFFFFF"/>
</g>
</g>
<g id="D">
<use xlink:href="#path3_fill" transform="translate(-1781 -44)" fill="#FFFFFF"/>
</g>
</g>
</g>
</g>
</g>
</g>
<defs>
<path id="path0_fill" fill-rule="evenodd" d="M 0 0L 0 640L 360 640L 360 0L 0 0Z"/>
<path id="path1_fill" d="M 71.6974 117.729C 44.5804 117.729 12.0334 106.245 2.04639 93.152C -3.77161 85.526 3.83439 63.28 12.1154 46.547C 22.7424 25.075 40.5144 0 55.6294 0C 79.8044 0 109.52 50.862 109.52 92.242C 109.519 108.439 95.7344 117.729 71.6974 117.729ZM 55.6294 3C 42.7704 3 25.8594 25.54 14.8044 47.877C 4.88139 67.928 0.519394 86.204 4.43139 91.333C 13.7724 103.578 45.8334 114.729 71.6974 114.729C 84.7024 114.729 106.519 111.808 106.519 92.243C 106.519 53.042 77.9834 3 55.6294 3Z"/>
<path id="path2_fill" d="M 0 0L 4.33333 0L 4.33333 9.5L 0 9.5L 0 0Z"/>
<path id="path3_fill" d="M 21.832 59.4434C 21.832 69.3418 19.1387 76.916 13.752 82.166C 8.39258 87.3887 0.667969 90 -9.42188 90L -26.0332 90L -26.0332 30.0352L -7.6582 30.0352C 1.66602 30.0352 8.91211 32.6191 14.0801 37.7871C 19.248 42.9551 21.832 50.1738 21.832 59.4434ZM 14.4492 59.6895C 14.4492 51.8691 12.4805 45.9766 8.54297 42.0117C 4.63281 38.0469 -1.19141 36.0645 -8.92969 36.0645L -19.0605 36.0645L -19.0605 83.9707L -10.5703 83.9707C -2.25781 83.9707 3.99023 81.9336 8.17383 77.8594C 12.3574 73.7578 14.4492 67.7012 14.4492 59.6895Z"/>
</defs>
</svg>
